<svg data-v-423bf9ae="" xmlns="http://www.w3.org/2000/svg" viewBox="0 0 181.76470429132428 60" class="font"><!----><!----><!----><g data-v-423bf9ae="" id="a496db42-f028-482c-88da-4083de752faa" fill="white" transform="matrix(6.302521336710863,0,0,6.302521336710863,-5.483192790464571,-22.94117808836976)"><path d="M8.76 10.68Q8.37 11.86 7.40 12.51Q6.43 13.16 5.07 13.16L5.07 13.16Q3.81 13.16 2.86 12.58Q1.90 12.00 1.39 10.92Q0.87 9.84 0.87 8.40L0.87 8.40Q0.87 6.96 1.39 5.88Q1.90 4.80 2.86 4.22Q3.81 3.64 5.05 3.64L5.05 3.64Q7.83 3.64 8.64 5.92L8.64 5.92L7.95 6.24Q7.63 5.26 6.92 4.77Q6.22 4.28 5.10 4.28L5.10 4.28Q4.06 4.28 3.27 4.78Q2.48 5.28 2.04 6.21Q1.61 7.14 1.61 8.40L1.61 8.40Q1.61 9.66 2.04 10.59Q2.46 11.52 3.24 12.02Q4.02 12.52 5.07 12.52L5.07 12.52Q6.19 12.52 6.97 11.97Q7.76 11.42 8.06 10.42L8.06 10.42L8.76 10.68ZM13.55 5.88Q14.11 5.88 14.43 6.12L14.43 6.12L14.25 6.78Q13.93 6.52 13.36 6.52L13.36 6.52Q12.82 6.52 12.36 6.85Q11.89 7.18 11.60 7.78Q11.31 8.37 11.31 9.10L11.31 9.10L11.31 13.02L10.61 13.02L10.61 6.02L11.20 6.02L11.28 7.45Q11.58 6.71 12.16 6.29Q12.74 5.88 13.55 5.88L13.55 5.88ZM21.01 6.02L21.71 6.02L21.71 13.02L21.08 13.02L21.06 11.63Q20.71 12.38 20.01 12.77Q19.31 13.16 18.35 13.16L18.35 13.16Q17.21 13.16 16.52 12.52Q15.83 11.89 15.83 10.64L15.83 10.64L15.83 6.02L16.53 6.02L16.53 10.47Q16.53 12.54 18.47 12.54L18.47 12.54Q19.24 12.54 19.82 12.21Q20.40 11.87 20.71 11.30Q21.01 10.72 21.01 10.04L21.01 10.04L21.01 6.02ZM29.71 13.02L28.83 13.02L26.46 9.95L24.14 13.02L23.30 13.02L26.07 9.44L23.44 6.02L24.33 6.02L26.53 8.88L28.66 6.02L29.50 6.02L26.92 9.39L29.71 13.02Z"></path></g><!----><!----></svg>